<svg width="32" height="32" viewBox="0 0 32 32" fill="none" xmlns="http://www.w3.org/2000/svg">
<g clip-path="url(#clip0_9_125)">
<path fill-rule="evenodd" clip-rule="evenodd" d="M16.0001 2.66667C8.63608 2.66667 2.66675 8.636 2.66675 16C2.66675 18.52 3.36675 20.88 4.58408 22.8907L3.39475 26.9333C3.32646 27.1654 3.32197 27.4117 3.38174 27.6461C3.44151 27.8806 3.56334 28.0946 3.73443 28.2657C3.90551 28.4367 4.11952 28.5586 4.35397 28.6183C4.58842 28.6781 4.83464 28.6736 5.06675 28.6053L9.10941 27.416C11.1876 28.6735 13.571 29.3366 16.0001 29.3333C23.3641 29.3333 29.3334 23.364 29.3334 16C29.3334 8.636 23.3641 2.66667 16.0001 2.66667ZM12.9841 19.0173C15.6814 21.7133 18.2561 22.0693 19.1654 22.1027C20.5481 22.1533 21.8947 21.0973 22.4187 19.872C22.4849 19.7196 22.5089 19.5522 22.4883 19.3873C22.4676 19.2224 22.4031 19.0661 22.3014 18.9347C21.5707 18.0013 20.5827 17.3307 19.6174 16.664C19.4159 16.5246 19.1682 16.4687 18.9263 16.508C18.6844 16.5473 18.4672 16.6787 18.3201 16.8747L17.5201 18.0947C17.478 18.1603 17.4125 18.2073 17.3369 18.2261C17.2613 18.245 17.1813 18.2342 17.1134 18.196C16.5707 17.8853 15.7801 17.3573 15.2121 16.7893C14.6441 16.2213 14.1481 15.4667 13.8694 14.9587C13.8349 14.8941 13.8249 14.8193 13.8413 14.7479C13.8577 14.6766 13.8995 14.6136 13.9587 14.5707L15.1907 13.656C15.3666 13.5031 15.48 13.2909 15.5095 13.0598C15.539 12.8287 15.4825 12.5948 15.3507 12.4027C14.7534 11.528 14.0574 10.416 13.0481 9.67867C12.9178 9.58427 12.7652 9.52541 12.6053 9.50788C12.4454 9.49035 12.2837 9.51474 12.1361 9.57867C10.9094 10.104 9.84808 11.4507 9.89875 12.836C9.93208 13.7453 10.2881 16.32 12.9841 19.0173Z" fill="black"/>
</g>
<defs>
<clipPath id="clip0_9_125">
<rect width="32" height="32" fill="white"/>
</clipPath>
</defs>
</svg>
