<svg width="48" height="48" viewBox="0 0 48 48" fill="none" xmlns="http://www.w3.org/2000/svg">
<g clip-path="url(#clip0_21_139)">
<mask id="mask0_21_139" style="mask-type:luminance" maskUnits="userSpaceOnUse" x="0" y="0" width="48" height="48">
<path d="M0 0H48V48H0V0Z" fill="white"/>
</mask>
<g mask="url(#mask0_21_139)">
<path d="M22.7701 30.55C24.9921 30.542 29.8501 30.524 29.7941 27.434C29.7401 24.274 25.0741 24.464 22.8001 24.558C22.5461 24.568 22.3201 24.578 22.1361 24.58L22.2401 30.554C22.3901 30.55 22.5701 30.55 22.7701 30.55ZM22.5341 21.844C24.3881 21.842 28.4341 21.838 28.3861 19.028C28.3341 16.154 24.4481 16.324 22.5501 16.408C22.3361 16.418 22.1501 16.426 21.9941 16.428L22.0881 21.846L22.5341 21.844Z" fill="white"/>
<path fill-rule="evenodd" clip-rule="evenodd" d="M18.1921 47.282C31.0521 50.488 44.0761 42.662 47.2821 29.806C50.4881 16.948 42.6601 3.924 29.8001 0.720002C16.9481 -2.488 3.92409 5.34 0.720086 18.2C-2.48591 31.056 5.34009 44.08 18.1941 47.284L18.1921 47.282ZM26.7561 13.242C30.2641 13.49 33.0561 14.518 33.4221 17.726C33.6941 20.074 32.7341 21.504 31.1761 22.332C33.7761 22.908 35.4261 24.418 35.1661 27.874C34.8441 32.164 31.6701 33.37 27.1141 33.71L27.1901 38.21L24.4781 38.26L24.4001 33.82C23.6981 33.832 22.9781 33.84 22.2321 33.836L22.3121 38.296L19.6001 38.344L19.5201 33.836L18.7541 33.842C18.3661 33.844 17.9741 33.846 17.5821 33.854L14.0501 33.914L14.5321 30.666C14.5321 30.666 16.5401 30.662 16.5041 30.632C17.2721 30.616 17.4661 30.062 17.5081 29.714L17.3861 22.6L17.5801 22.596H17.6721C17.5765 22.585 17.4803 22.5804 17.3841 22.582L17.2961 17.502C17.1821 16.954 16.8141 16.322 15.7161 16.342C15.7461 16.302 13.7441 16.376 13.7441 16.376L13.6921 13.48L17.4361 13.416V13.43C17.9981 13.42 18.5761 13.4 19.1621 13.378L19.0861 8.92L21.7981 8.874L21.8741 13.242C22.5981 13.216 23.3261 13.188 24.0401 13.176L23.9641 8.836L26.6781 8.788L26.7561 13.246V13.242Z" fill="white"/>
</g>
</g>
<defs>
<clipPath id="clip0_21_139">
<rect width="48" height="48" fill="white"/>
</clipPath>
</defs>
</svg>
